/* XPM */
static char * close_prelight_xpm[] = {
"20 26 28 1",
" 	c None",
".	c #8F8F8F",
"+	c #F4F4F4",
"@	c #F3F3F3",
"#	c #F1F1F1",
"$	c #EFF0F0",
"%	c #EDEDEC",
"&	c #EAEAEA",
"*	c #E7E6E6",
"=	c #E4E4E4",
"-	c #E1E2E1",
";	c #DFDFDF",
">	c #4B4B4B",
",	c #DCDDDC",
"'	c #666666",
")	c #DADADA",
"!	c #D8D8D8",
"~	c #D6D6D6",
"{	c #8B8B8B",
"]	c #D5D5D5",
"^	c #D3D3D3",
"/	c #D1D1D1",
"(	c #D0D0D0",
"_	c #CFCFCF",
":	c #CECECE",
"<	c #CDCDCD",
"[	c #CCCCCD",
"}	c #CCCCCC",
"....................",
"++++++++++++++++++++",
"@@@@@@@@@@@@@@@@@@@@",
"####################",
"$$$$$$$$$$$$$$$$$$$$",
"%%%%%%%%%%%%%%%%%%%%",
"&&&&&&&&&&&&&&&&&&&&",
"********************",
"====================",
"--------------------",
";;;;;;>>;;;;>>;;;;;;",
",,,,,,''>,,>'',,,,,,",
")))))))''>>'')))))))",
"!!!!!!!!''''!!!!!!!!",
"~~~~~~~~{''{~~~~~~~~",
"]]]]]]]>''''>]]]]]]]",
"^^^^^^>''^^''>^^^^^^",
"//////''////''//////",
"((((((((((((((((((((",
"____________________",
"::::::::::::::::::::",
"<<<<<<<<<<<<<<<<<<<<",
"[[[[[[[[[[[[[[[[[[[[",
"}}}}}}}}}}}}}}}}}}}}",
"}}}}}}}}}}}}}}}}}}}}",
"}}}}}}}}}}}}}}}}}}}}"};
