/* XPM */
static char * close_active_xpm[] = {
"20 24 28 1",
" 	c None",
".	c #A3A3A3",
"+	c #EEEEEE",
"@	c #ECECEC",
"#	c #EBEBEB",
"$	c #EAEAEA",
"%	c #E8E8E8",
"&	c #E7E7E7",
"*	c #E5E5E5",
"=	c #E4E4E4",
"-	c #E2E2E2",
";	c #797979",
">	c #E1E1E1",
",	c #929292",
"'	c #DFDFDF",
")	c #DEDEDE",
"!	c #DCDCDC",
"~	c #B0B0B0",
"{	c #DBDBDB",
"]	c #D9D9D9",
"^	c #D8D8D8",
"/	c #D6D6D6",
"(	c #D5D5D5",
"_	c #D3D3D3",
":	c #D2D2D2",
"<	c #D0D0D0",
"[	c #CFCFCF",
"}	c #CDCDCD",
"....................",
"++++++++++++++++++++",
"@@@@@@@@@@@@@@@@@@@@",
"####################",
"$$$$$$$$$$$$$$$$$$$$",
"%%%%%%%%%%%%%%%%%%%%",
"&&&&&&&&&&&&&&&&&&&&",
"********************",
"====================",
"------;;----;;------",
">>>>>>,,;>>;,,>>>>>>",
"''''''',,;;,,'''''''",
")))))))),,,,))))))))",
"!!!!!!!!~,,~!!!!!!!!",
"{{{{{{{;,,,,;{{{{{{{",
"]]]]]];,,]],,;]]]]]]",
"^^^^^^,,^^^^,,^^^^^^",
"////////////////////",
"((((((((((((((((((((",
"____________________",
"::::::::::::::::::::",
"<<<<<<<<<<<<<<<<<<<<",
"[[[[[[[[[[[[[[[[[[[[",
"}}}}}}}}}}}}}}}}}}}}"};
