/* XPM */
static char * maximize_prelight_xpm[] = {
"20 24 27 1",
" 	c None",
".	c #A3A3A3",
"+	c #EEEEEE",
"@	c #ECECEC",
"#	c #EBEBEB",
"$	c #EAEAEA",
"%	c #E8E8E8",
"&	c #E7E7E7",
"*	c #E5E5E5",
"=	c #E4E4E4",
"-	c #E2E2E2",
";	c #434343",
">	c #E1E1E1",
",	c #595959",
"'	c #DFDFDF",
")	c #DEDEDE",
"!	c #DCDCDC",
"~	c #DBDBDB",
"{	c #D9D9D9",
"]	c #D8D8D8",
"^	c #D6D6D6",
"/	c #D5D5D5",
"(	c #D3D3D3",
"_	c #D2D2D2",
":	c #D0D0D0",
"<	c #CFCFCF",
"[	c #CDCDCD",
"....................",
"++++++++++++++++++++",
"@@@@@@@@@@@@@@@@@@@@",
"####################",
"$$$$$$$$$$$$$$$$$$$$",
"%%%%%%%%%%%%%%%%%%%%",
"&&&&&&&&&&&&&&&&&&&&",
"********************",
"====================",
"---------;;---------",
">>>>>>>>>,,>>>>>>>>>",
"''''''''',,'''''''''",
"))))));;;,,;;;))))))",
"!!!!!!,,,,,,,,!!!!!!",
"~~~~~~~~~,,~~~~~~~~~",
"{{{{{{{{{,,{{{{{{{{{",
"]]]]]]]]],,]]]]]]]]]",
"^^^^^^^^^^^^^^^^^^^^",
"////////////////////",
"((((((((((((((((((((",
"____________________",
"::::::::::::::::::::",
"<<<<<<<<<<<<<<<<<<<<",
"[[[[[[[[[[[[[[[[[[[["};
