/* XPM */
static char * shade_active_xpm[] = {
"20 24 35 1",
" 	c None",
".	c #A3A3A3",
"+	c #EEEEEE",
"@	c #ECECEC",
"#	c #EBEBEB",
"$	c #EAEAEA",
"%	c #E8E8E8",
"&	c #E7E7E7",
"*	c #E5E5E5",
"=	c #E4E4E4",
"-	c #878787",
";	c #8E8E8E",
">	c #E2E2E2",
",	c #848484",
"'	c #7C7C7C",
")	c #E1E1E1",
"!	c #8C8C8C",
"~	c #727272",
"{	c #959595",
"]	c #DFDFDF",
"^	c #5E5E5E",
"/	c #868686",
"(	c #909090",
"_	c #DEDEDE",
":	c #DCDCDC",
"<	c #DBDBDB",
"[	c #D9D9D9",
"}	c #D8D8D8",
"|	c #D6D6D6",
"1	c #D5D5D5",
"2	c #D3D3D3",
"3	c #D2D2D2",
"4	c #D0D0D0",
"5	c #CFCFCF",
"6	c #CDCDCD",
"....................",
"++++++++++++++++++++",
"@@@@@@@@@@@@@@@@@@@@",
"####################",
"$$$$$$$$$$$$$$$$$$$$",
"%%%%%%%%%%%%%%%%%%%%",
"&&&&&&&&&&&&&&&&&&&&",
"********************",
"=========-;=========",
">>>>>>>>,'';>>>>>>>>",
")))))))!~!{~{)))))))",
"]]]]]]!^!//(^(]]]]]]",
"_________//_________",
"::::::::://:::::::::",
"<<<<<<<<<//<<<<<<<<<",
"[[[[[[[[[//[[[[[[[[[",
"}}}}}}}}}}}}}}}}}}}}",
"||||||||||||||||||||",
"11111111111111111111",
"22222222222222222222",
"33333333333333333333",
"44444444444444444444",
"55555555555555555555",
"66666666666666666666"};
