/* XPM */
static char * shade_toggled_prelight_xpm[] = {
"20 24 35 1",
" 	c None",
".	c #A3A3A3",
"+	c #EEEEEE",
"@	c #ECECEC",
"#	c #EBEBEB",
"$	c #EAEAEA",
"%	c #E8E8E8",
"&	c #E7E7E7",
"*	c #E5E5E5",
"=	c #E4E4E4",
"-	c #595959",
";	c #E2E2E2",
">	c #E1E1E1",
",	c #DFDFDF",
"'	c #DEDEDE",
")	c #5F5F5F",
"!	c #343434",
"~	c #646464",
"{	c #DCDCDC",
"]	c #454545",
"^	c #696969",
"/	c #DBDBDB",
"(	c #575757",
"_	c #4E4E4E",
":	c #616161",
"<	c #D9D9D9",
"[	c #5A5A5A",
"}	c #D8D8D8",
"|	c #D6D6D6",
"1	c #D5D5D5",
"2	c #D3D3D3",
"3	c #D2D2D2",
"4	c #D0D0D0",
"5	c #CFCFCF",
"6	c #CDCDCD",
"....................",
"++++++++++++++++++++",
"@@@@@@@@@@@@@@@@@@@@",
"####################",
"$$$$$$$$$$$$$$$$$$$$",
"%%%%%%%%%%%%%%%%%%%%",
"&&&&&&&&&&&&&&&&&&&&",
"********************",
"=========--=========",
";;;;;;;;;--;;;;;;;;;",
">>>>>>>>>-->>>>>>>>>",
",,,,,,,,,--,,,,,,,,,",
"'''''')!)--~!~''''''",
"{{{{{{{)])^]^{{{{{{{",
"////////(__:////////",
"<<<<<<<<<[:<<<<<<<<<",
"}}}}}}}}}}}}}}}}}}}}",
"||||||||||||||||||||",
"11111111111111111111",
"22222222222222222222",
"33333333333333333333",
"44444444444444444444",
"55555555555555555555",
"66666666666666666666"};
