/* XPM */
static char * shade_prelight_xpm[] = {
"20 26 35 1",
" 	c None",
".	c #8F8F8F",
"+	c #F4F4F4",
"@	c #F3F3F3",
"#	c #F1F1F1",
"$	c #EFF0F0",
"%	c #EDEDEC",
"&	c #EAEAEA",
"*	c #E7E6E6",
"=	c #E4E4E4",
"-	c #E1E2E1",
";	c #5A5A5A",
">	c #616161",
",	c #DFDFDF",
"'	c #575757",
")	c #4E4E4E",
"!	c #DCDDDC",
"~	c #5F5F5F",
"{	c #454545",
"]	c #787878",
"^	c #DADADA",
"/	c #343434",
"(	c #595959",
"_	c #646464",
":	c #D8D8D8",
"<	c #D6D6D6",
"[	c #D5D5D5",
"}	c #D3D3D3",
"|	c #D1D1D1",
"1	c #D0D0D0",
"2	c #CFCFCF",
"3	c #CECECE",
"4	c #CDCDCD",
"5	c #CCCCCD",
"6	c #CCCCCC",
"....................",
"++++++++++++++++++++",
"@@@@@@@@@@@@@@@@@@@@",
"####################",
"$$$$$$$$$$$$$$$$$$$$",
"%%%%%%%%%%%%%%%%%%%%",
"&&&&&&&&&&&&&&&&&&&&",
"********************",
"====================",
"---------;>---------",
",,,,,,,,'))>,,,,,,,,",
"!!!!!!!~{~]{]!!!!!!!",
"^^^^^^~/~((_/_^^^^^^",
":::::::::((:::::::::",
"<<<<<<<<<((<<<<<<<<<",
"[[[[[[[[[(([[[[[[[[[",
"}}}}}}}}}((}}}}}}}}}",
"||||||||||||||||||||",
"11111111111111111111",
"22222222222222222222",
"33333333333333333333",
"44444444444444444444",
"55555555555555555555",
"66666666666666666666",
"66666666666666666666",
"66666666666666666666"};
