/* XPM */
static char * shade_inactive_xpm[] = {
"20 24 26 1",
" 	c None",
".	c #A3A3A3",
"+	c #DADADA",
"@	c #D9D9D9",
"#	c #D8D8D8",
"$	c #D7D7D7",
"%	c #D6D6D6",
"&	c #D5D5D5",
"*	c #D4D4D4",
"=	c #878787",
"-	c #8E8E8E",
";	c #D3D3D3",
">	c #848484",
",	c #7C7C7C",
"'	c #8C8C8C",
")	c #727272",
"!	c #959595",
"~	c #D2D2D2",
"{	c #5E5E5E",
"]	c #909090",
"^	c #D1D1D1",
"/	c #D0D0D0",
"(	c #CFCFCF",
"_	c #CECECE",
":	c #CDCDCD",
"<	c #CCCCCC",
"....................",
"++++++++++++++++++++",
"++++++++++++++++++++",
"@@@@@@@@@@@@@@@@@@@@",
"####################",
"####################",
"$$$$$$$$$$$$$$$$$$$$",
"%%%%%%%%%%%%%%%%%%%%",
"%%%%%%%%%%%%%%%%%%%%",
"&&&&&&&&&&&&&&&&&&&&",
"&&&&&&&&&&&&&&&&&&&&",
"*********=-*********",
";;;;;;;;>,,-;;;;;;;;",
";;;;;;;')'!)!;;;;;;;",
"~~~~~~'{'~~]{]~~~~~~",
"^^^^^^^^^^^^^^^^^^^^",
"^^^^^^^^^^^^^^^^^^^^",
"////////////////////",
"////////////////////",
"((((((((((((((((((((",
"____________________",
"____________________",
"::::::::::::::::::::",
"<<<<<<<<<<<<<<<<<<<<"};
