/* XPM */
static char * top_left_active_xpm[] = {
"8 26 26 1",
" 	c None",
".	c #8F8F8F",
"+	c #939393",
"@	c #F4F4F4",
"#	c #F3F3F3",
"$	c #F1F1F1",
"%	c #EFF0F0",
"&	c #EDEDEC",
"*	c #EAEAEA",
"=	c #E7E6E6",
"-	c #E4E4E4",
";	c #E1E2E1",
">	c #DFDFDF",
",	c #DCDDDC",
"'	c #DADADA",
")	c #D8D8D8",
"!	c #D6D6D6",
"~	c #D5D5D5",
"{	c #D3D3D3",
"]	c #D1D1D1",
"^	c #D0D0D0",
"/	c #CFCFCF",
"(	c #CECECE",
"_	c #CDCDCD",
":	c #CCCCCD",
"<	c #CCCCCC",
"     ...",
"   ++@@@",
"  +#####",
" +$$$$$$",
" +%%%%%%",
"+&&&&&&&",
"+*******",
"+=======",
"+-------",
"+;;;;;;;",
"+>>>>>>>",
"+,,,,,,,",
"+'''''''",
"+)))))))",
"+!!!!!!!",
"+~~~~~~~",
"+{{{{{{{",
"+]]]]]]]",
"+^^^^^^^",
"+///////",
"+(((((((",
"+_______",
"+:::::::",
"+<<<<<<<",
"+<<<<<<<",
"+<<<<<<<"};
