/* XPM */
static char * bottom_active_xpm[] = {
"1 2 3 1",
" 	c None",
".	c #DEDEDE",
"+	c #939393",
".",
"+"};
