/* XPM */
static char * maximize_inactive_xpm[] = {
"20 26 18 1",
" 	c None",
".	c #A3A3A3",
"+	c #ECECEC",
"@	c #EBEBEB",
"#	c #EAEAEA",
"$	c #E9E9E9",
"%	c #E8E8E8",
"&	c #E7E7E7",
"*	c #999999",
"=	c #E6E6E6",
"-	c #E5E5E5",
";	c #E4E4E4",
">	c #E3E3E3",
",	c #E2E2E2",
"'	c #E1E1E1",
")	c #E0E0E0",
"!	c #DFDFDF",
"~	c #DEDEDE",
"....................",
"++++++++++++++++++++",
"++++++++++++++++++++",
"++++++++++++++++++++",
"@@@@@@@@@@@@@@@@@@@@",
"####################",
"####################",
"$$$$$$$$$$$$$$$$$$$$",
"%%%%%%%%%%%%%%%%%%%%",
"%%%%%%%%%%%%%%%%%%%%",
"&&&&&&&&&**&&&&&&&&&",
"&&&&&&&&&**&&&&&&&&&",
"=========**=========",
"------********------",
"------********------",
";;;;;;;;;**;;;;;;;;;",
">>>>>>>>>**>>>>>>>>>",
">>>>>>>>>**>>>>>>>>>",
",,,,,,,,,,,,,,,,,,,,",
",,,,,,,,,,,,,,,,,,,,",
"''''''''''''''''''''",
"))))))))))))))))))))",
"))))))))))))))))))))",
"!!!!!!!!!!!!!!!!!!!!",
"~~~~~~~~~~~~~~~~~~~~",
"~~~~~~~~~~~~~~~~~~~~"};
