/* XPM */
static char * menu_active_xpm[] = {
"20 26 13 1",
" 	c None",
".	c #A3A3A3",
"+	c #ECECEC",
"@	c #EBEBEB",
"#	c #EAEAEA",
"$	c #E9E9E9",
"%	c #E8E8E8",
"&	c #E7E7E7",
"*	c #E5E5E5",
"=	c #777777",
"-	c #E4E4E4",
";	c #E3E3E3",
">	c #E2E2E2",
"....................",
"++++++++++++++++++++",
"++++++++++++++++++++",
"++++++++++++++++++++",
"@@@@@@@@@@@@@@@@@@@@",
"####################",
"####################",
"$$$$$$$$$$$$$$$$$$$$",
"%%%%%%%%%%%%%%%%%%%%",
"%%%%%%%%%%%%%%%%%%%%",
"&&&&&&&&&&&&&&&&&&&&",
"&&&&&&&&&&&&&&&&&&&&",
"******========******",
"-------======-------",
"--------====--------",
";;;;;;;;;==;;;;;;;;;",
";;;;;;;;;;;;;;;;;;;;",
";;;;;;;;;;;;;;;;;;;;",
">>>>>>>>>>>>>>>>>>>>",
">>>>>>>>>>>>>>>>>>>>",
">>>>>>>>>>>>>>>>>>>>",
">>>>>>>>>>>>>>>>>>>>",
">>>>>>>>>>>>>>>>>>>>",
";;;;;;;;;;;;;;;;;;;;",
";;;;;;;;;;;;;;;;;;;;",
";;;;;;;;;;;;;;;;;;;;"};
