/* XPM */
static char * shade_toggled_active_xpm[] = {
"20 26 35 1",
" 	c None",
".	c #8F8F8F",
"+	c #F4F4F4",
"@	c #F3F3F3",
"#	c #F1F1F1",
"$	c #EFF0F0",
"%	c #EDEDEC",
"&	c #EAEAEA",
"*	c #E7E6E6",
"=	c #E4E4E4",
"-	c #E1E2E1",
";	c #868686",
">	c #DFDFDF",
",	c #DCDDDC",
"'	c #DADADA",
")	c #D8D8D8",
"!	c #8C8C8C",
"~	c #5E5E5E",
"{	c #909090",
"]	c #D6D6D6",
"^	c #727272",
"/	c #959595",
"(	c #D5D5D5",
"_	c #848484",
":	c #7C7C7C",
"<	c #8E8E8E",
"[	c #D3D3D3",
"}	c #878787",
"|	c #D1D1D1",
"1	c #D0D0D0",
"2	c #CFCFCF",
"3	c #CECECE",
"4	c #CDCDCD",
"5	c #CCCCCD",
"6	c #CCCCCC",
"....................",
"++++++++++++++++++++",
"@@@@@@@@@@@@@@@@@@@@",
"####################",
"$$$$$$$$$$$$$$$$$$$$",
"%%%%%%%%%%%%%%%%%%%%",
"&&&&&&&&&&&&&&&&&&&&",
"********************",
"====================",
"---------;;---------",
">>>>>>>>>;;>>>>>>>>>",
",,,,,,,,,;;,,,,,,,,,",
"''''''''';;'''''''''",
"))))))!~!;;{~{))))))",
"]]]]]]]!^!/^/]]]]]]]",
"((((((((_::<((((((((",
"[[[[[[[[[}<[[[[[[[[[",
"||||||||||||||||||||",
"11111111111111111111",
"22222222222222222222",
"33333333333333333333",
"44444444444444444444",
"55555555555555555555",
"66666666666666666666",
"66666666666666666666",
"66666666666666666666"};
