/* XPM */
static char * title_4_active_xpm[] = {
"30 26 162 2",
"  	c None",
". 	c #8F8F8F",
"+ 	c #F5F5F5",
"@ 	c #F4F4F4",
"# 	c #F3F3F3",
"$ 	c #F1F1F1",
"% 	c #F5F5F4",
"& 	c #F4F5F4",
"* 	c #F5F4F5",
"= 	c #F5F4F4",
"- 	c #F4F5F5",
"; 	c #F4F3F3",
"> 	c #F2F3F3",
", 	c #EFF0F0",
"' 	c #F3F2F3",
") 	c #F2F2F3",
"! 	c #F3F3F2",
"~ 	c #F3F2F2",
"{ 	c #F2F2F1",
"] 	c #F1F0F0",
"^ 	c #EFEFEF",
"/ 	c #EEEDEE",
"( 	c #EDEDEC",
"_ 	c #F1F0F1",
": 	c #F1F1F0",
"< 	c #F0F0F0",
"[ 	c #F0EFEF",
"} 	c #EFEEEF",
"| 	c #EEEEEE",
"1 	c #ECECEC",
"2 	c #EAEAEA",
"3 	c #EFEEEE",
"4 	c #EFEFEE",
"5 	c #EEEFEF",
"6 	c #EEEFEE",
"7 	c #EEEEEF",
"8 	c #EDEEEE",
"9 	c #EBEAEA",
"0 	c #E9E9E9",
"a 	c #E7E7E8",
"b 	c #E7E6E6",
"c 	c #EDECEC",
"d 	c #ECEDEC",
"e 	c #EBEBEB",
"f 	c #EAEAE9",
"g 	c #E8E8E8",
"h 	c #E8E8E7",
"i 	c #E6E7E6",
"j 	c #E5E6E5",
"k 	c #E4E4E4",
"l 	c #EBEAEB",
"m 	c #EAEBEA",
"n 	c #E9E8E9",
"o 	c #E7E7E7",
"p 	c #E7E6E7",
"q 	c #E5E5E5",
"r 	c #E5E4E4",
"s 	c #E3E3E3",
"t 	c #E3E2E2",
"u 	c #E1E2E1",
"v 	c #E8E8E9",
"w 	c #E9E9E8",
"x 	c #E9E8E8",
"y 	c #E6E6E6",
"z 	c #E4E4E5",
"A 	c #E2E2E3",
"B 	c #E2E2E2",
"C 	c #E1E1E1",
"D 	c #E0DFDF",
"E 	c #DFDFDF",
"F 	c #E4E5E4",
"G 	c #E1E0E0",
"H 	c #DEDEDE",
"I 	c #DDDDDD",
"J 	c #DCDDDC",
"K 	c #E4E3E3",
"L 	c #E0E0E0",
"M 	c #DCDCDC",
"N 	c #DCDBDB",
"O 	c #DADADA",
"P 	c #DBDBDB",
"Q 	c #D9D9D9",
"R 	c #D8D8D8",
"S 	c #D7D7D7",
"T 	c #D6D6D6",
"U 	c #DEDDDE",
"V 	c #DEDEDD",
"W 	c #DDDCDD",
"X 	c #DCDBDC",
"Y 	c #DCDCDB",
"Z 	c #D9D8D9",
"` 	c #D8D7D8",
" .	c #D6D5D6",
"..	c #D5D5D5",
"+.	c #DBDCDC",
"@.	c #DBDCDB",
"#.	c #DBDADB",
"$.	c #D8D9D9",
"%.	c #D8D9D8",
"&.	c #D4D4D4",
"*.	c #D3D4D4",
"=.	c #D3D3D3",
"-.	c #DAD9DA",
";.	c #D9DADA",
">.	c #DAD9D9",
",.	c #D9D9DA",
"'.	c #D9D8D8",
").	c #D8D8D9",
"!.	c #D7D8D8",
"~.	c #D7D6D7",
"{.	c #D5D4D4",
"].	c #D3D3D4",
"^.	c #D2D3D3",
"/.	c #D2D2D2",
"(.	c #D1D1D1",
"_.	c #D7D7D8",
":.	c #D8D8D7",
"<.	c #D6D7D7",
"[.	c #D6D6D5",
"}.	c #D4D5D5",
"|.	c #D2D2D1",
"1.	c #D0D0D0",
"2.	c #D6D5D5",
"3.	c #D5D5D6",
"4.	c #D5D6D5",
"5.	c #D5D6D6",
"6.	c #D4D4D5",
"7.	c #D3D4D3",
"8.	c #D4D3D4",
"9.	c #D1D1D2",
"0.	c #D0D1D0",
"a.	c #D1D0D1",
"b.	c #D0CFCF",
"c.	c #CFCFCF",
"d.	c #D2D3D2",
"e.	c #D1D2D2",
"f.	c #D0D0D1",
"g.	c #CECECE",
"h.	c #D2D1D2",
"i.	c #D2D1D1",
"j.	c #D1D1D0",
"k.	c #CFD0D0",
"l.	c #CFCFD0",
"m.	c #CFCECF",
"n.	c #CFCFCE",
"o.	c #CDCDCE",
"p.	c #CECDCD",
"q.	c #CDCDCD",
"r.	c #D0CFD0",
"s.	c #CFD0CF",
"t.	c #CECECF",
"u.	c #CFCECE",
"v.	c #CECFCF",
"w.	c #CECDCE",
"x.	c #CDCCCD",
"y.	c #CCCCCD",
"z.	c #CDCECD",
"A.	c #CDCECE",
"B.	c #CDCDCC",
"C.	c #CCCDCC",
"D.	c #CCCCCC",
"E.	c #CCCDCD",
". . . . . . . . . . . . . . . . . . . . . . . . . . . . . . ",
"+ + + + + + + + + + + + + + + + + + + + + + + + + + + + + @ ",
"+ + + + + + + + + + + + + + + + + + + + + + + + + + + + @ # ",
"+ + + + + + + + + + + + + + + + + + + + + + + + + + + @ # $ ",
"% & @ * & = = - + - % & @ * & = = - + - % & @ * & = ; > $ , ",
"' # ' ) ' ! ~ ! ' ! ' # ' ) ' ! ~ ! ' ! ' # ' ) ' { ] ^ / ( ",
"_ ] _ : ] _ $ < < $ _ ] _ : ] _ $ < < $ _ ] _ : [ } | 1 2 2 ",
"3 3 4 5 | ^ 3 6 7 3 3 3 4 5 | ^ 3 6 7 3 3 3 4 8 1 1 9 0 a b ",
"c 1 1 c ( 1 ( d d c c 1 1 c ( 1 ( d d c c 1 e 9 f g h i j k ",
"2 2 l 2 l 2 9 2 9 m 2 2 l 2 l 2 9 2 9 m 2 0 n o p q r s t u ",
"g g g v g v w g x v g g g v g v w g x v o y q z s A B C D E ",
"i y y y y b y y y i i y y y y b y y y j F k s B C G E H I J ",
"k k k k k k k k r k k k k k k k k k K B B C L E H I I M N O ",
"B B B B B B B B B B B B B B B B B C C L E H H I M P P O Q R ",
"L L L L L L L L L L L L L L L L E E H I I M P O O Q R R S T ",
"H H U H U U H U V H H H U H U W I X Y P O O Z R ` S S  .....",
"M M M X M X M M +.@.M M M X P #.O O $.%.R S S T T ....&.*.=.",
"-.;.>.>.,.;.O ;.-.Q -.;.>.'.).!.R S ~.T  ...{.{.].*.=.^./.(.",
"R _.!.!.R R :.R R !.R _.<.<.S T [.....}.&.].=.^././.|.(.(.1.",
"2.T 3.2.4. .T 2.T 5.2...6.{.7.8.&.=.=.^././.9.(.0.a.1.b.1.c.",
"7.*.&.&.=.*.&.=.&.].d.^.=.=.(.e./.(.(.f.0.1.1.1.c.c.c.g.g.g.",
"(.h.(.|.(.e.(.9.i.(.1.a.1.j.1.k.c.l.b.c.c.m.g.n.g.g.g.o.p.q.",
"r.c.b.k.1.r.s.c.m.t.m.g.u.v.c.m.g.g.w.o.w.q.p.q.q.q.q.q.x.y.",
"q.z.A.z.z.q.A.B.q.C.D.C.E.C.C.D.E.B.q.C.D.C.D.D.D.D.D.D.D.D.",
"D.D.D.D.D.D.D.D.D.D.D.D.D.D.D.D.D.D.D.D.D.D.D.D.D.D.D.D.D.D.",
"D.D.D.D.D.D.D.D.D.D.D.D.D.D.D.D.D.D.D.D.D.D.D.D.D.D.D.D.D.D."};
