/* XPM */
static char * title_3_active_xpm[] = {
"10 26 93 2",
"  	c None",
". 	c #8F8F8F",
"+ 	c #F5F5F5",
"@ 	c #F5F5F4",
"# 	c #F4F5F4",
"$ 	c #F4F4F4",
"% 	c #F5F4F5",
"& 	c #F5F4F4",
"* 	c #F4F5F5",
"= 	c #F3F2F3",
"- 	c #F3F3F3",
"; 	c #F2F2F3",
"> 	c #F3F3F2",
", 	c #F3F2F2",
"' 	c #F1F0F1",
") 	c #F1F0F0",
"! 	c #F1F1F0",
"~ 	c #F1F1F1",
"{ 	c #F0F0F0",
"] 	c #EFEEEE",
"^ 	c #EFEFEE",
"/ 	c #EEEFEF",
"( 	c #EEEEEE",
"_ 	c #EFEFEF",
": 	c #EEEFEE",
"< 	c #EEEEEF",
"[ 	c #EDECEC",
"} 	c #ECECEC",
"| 	c #EDEDEC",
"1 	c #ECEDEC",
"2 	c #EAEAEA",
"3 	c #EBEAEB",
"4 	c #EBEAEA",
"5 	c #EAEBEA",
"6 	c #E8E8E8",
"7 	c #E8E8E9",
"8 	c #E9E9E8",
"9 	c #E9E8E8",
"0 	c #E6E7E6",
"a 	c #E6E6E6",
"b 	c #E7E6E6",
"c 	c #E4E4E4",
"d 	c #E5E4E4",
"e 	c #E2E2E2",
"f 	c #E0E0E0",
"g 	c #DEDEDE",
"h 	c #DEDDDE",
"i 	c #DEDEDD",
"j 	c #DCDCDC",
"k 	c #DCDBDC",
"l 	c #DBDCDC",
"m 	c #DBDCDB",
"n 	c #DAD9DA",
"o 	c #D9DADA",
"p 	c #DAD9D9",
"q 	c #D9D9DA",
"r 	c #DADADA",
"s 	c #D9D9D9",
"t 	c #D8D8D8",
"u 	c #D7D7D8",
"v 	c #D7D8D8",
"w 	c #D8D8D7",
"x 	c #D6D5D5",
"y 	c #D6D6D6",
"z 	c #D5D5D6",
"A 	c #D5D6D5",
"B 	c #D6D5D6",
"C 	c #D5D6D6",
"D 	c #D3D4D3",
"E 	c #D3D4D4",
"F 	c #D4D4D4",
"G 	c #D3D3D3",
"H 	c #D3D3D4",
"I 	c #D1D1D1",
"J 	c #D2D1D2",
"K 	c #D2D2D1",
"L 	c #D1D2D2",
"M 	c #D1D1D2",
"N 	c #D2D1D1",
"O 	c #D2D2D2",
"P 	c #D0CFD0",
"Q 	c #CFCFCF",
"R 	c #D0CFCF",
"S 	c #CFD0D0",
"T 	c #D0D0D0",
"U 	c #CFD0CF",
"V 	c #CFCFD0",
"W 	c #CDCDCD",
"X 	c #CDCECD",
"Y 	c #CDCECE",
"Z 	c #CECECD",
"` 	c #CECECE",
" .	c #CCCCCC",
". . . . . . . . . . ",
"+ + + + + + + + + + ",
"+ + + + + + + + + + ",
"+ + + + + + + + + + ",
"@ # $ % # & & * + * ",
"= - = ; = > , > = > ",
"' ) ' ! ) ' ~ { { ~ ",
"] ] ^ / ( _ ] : < ] ",
"[ } } [ | } | 1 1 [ ",
"2 2 3 2 3 2 4 2 4 5 ",
"6 6 6 7 6 7 8 6 9 7 ",
"0 a a a a b a a a 0 ",
"c c c c c c c c d c ",
"e e e e e e e e e e ",
"f f f f f f f f f f ",
"g g h g h h g h i g ",
"j j j k j k j j l m ",
"n o p p q o r o n s ",
"t u v v t t w t t v ",
"x y z x A B y x y C ",
"D E F F G E F G F H ",
"I J I K I L I M N O ",
"P Q R S T P U Q P V ",
"W X Y X X W Y Z ` X ",
" . . . . . . . . . .",
" . . . . . . . . . ."};
