/* XPM */
static char * title_2_active_xpm[] = {
"30 26 163 2",
"  	c None",
". 	c #8F8F8F",
"+ 	c #F4F4F4",
"@ 	c #F5F5F5",
"# 	c #F3F3F3",
"$ 	c #F1F1F1",
"% 	c #F0F0EF",
"& 	c #F2F2F2",
"* 	c #F4F3F4",
"= 	c #F4F5F4",
"- 	c #F5F4F4",
"; 	c #F4F5F5",
"> 	c #F5F5F4",
", 	c #F5F4F5",
"' 	c #EDECED",
") 	c #EEEEEE",
"! 	c #EFEFEF",
"~ 	c #F0F0F1",
"{ 	c #F2F1F2",
"] 	c #F3F3F2",
"^ 	c #F3F2F2",
"/ 	c #F3F2F3",
"( 	c #F2F2F3",
"_ 	c #EAE9EA",
": 	c #EBEAEA",
"< 	c #ECECEC",
"[ 	c #EEEEED",
"} 	c #EFEEEE",
"| 	c #F0EFF0",
"1 	c #F0F0F0",
"2 	c #F1F0F1",
"3 	c #F1F0F0",
"4 	c #F1F1F0",
"5 	c #E7E6E6",
"6 	c #E8E7E7",
"7 	c #E9E9E9",
"8 	c #EAEBEB",
"9 	c #EBEBEB",
"0 	c #EDEDED",
"a 	c #EEEDED",
"b 	c #EEEFEE",
"c 	c #EEEEEF",
"d 	c #EFEFEE",
"e 	c #EEEFEF",
"f 	c #E4E4E4",
"g 	c #E5E5E5",
"h 	c #E6E6E6",
"i 	c #E9E9E8",
"j 	c #EBEBEA",
"k 	c #EBECEB",
"l 	c #ECEDEC",
"m 	c #EDECEC",
"n 	c #EDEDEC",
"o 	c #E1E1E1",
"p 	c #E2E2E2",
"q 	c #E4E3E4",
"r 	c #E6E5E6",
"s 	c #E8E8E8",
"t 	c #EAE9E9",
"u 	c #EAEBEA",
"v 	c #EAEAEA",
"w 	c #EBEAEB",
"x 	c #DFDFDF",
"y 	c #E3E3E4",
"z 	c #E5E5E4",
"A 	c #E7E7E8",
"B 	c #E8E8E9",
"C 	c #E9E8E8",
"D 	c #DCDDDC",
"E 	c #DDDDDD",
"F 	c #DEDEDE",
"G 	c #E0E0E0",
"H 	c #E2E1E1",
"I 	c #E3E3E3",
"J 	c #E4E5E4",
"K 	c #E5E6E5",
"L 	c #E6E7E6",
"M 	c #DADADA",
"N 	c #DBDBDB",
"O 	c #DCDCDC",
"P 	c #E5E4E4",
"Q 	c #D8D8D8",
"R 	c #D9D9D9",
"S 	c #D6D6D6",
"T 	c #D7D7D7",
"U 	c #D5D5D5",
"V 	c #D6D5D6",
"W 	c #D8D7D8",
"X 	c #D9D8D9",
"Y 	c #DADAD9",
"Z 	c #DCDBDC",
"` 	c #DDDCDD",
" .	c #DEDDDE",
"..	c #DEDEDD",
"+.	c #D3D3D3",
"@.	c #D4D4D4",
"#.	c #D5D4D5",
"$.	c #D7D8D7",
"%.	c #DAD9DA",
"&.	c #DBDADB",
"*.	c #DBDCDC",
"=.	c #DBDCDB",
"-.	c #D2D1D2",
";.	c #D2D2D2",
">.	c #D3D2D2",
",.	c #D3D3D4",
"'.	c #D3D4D4",
").	c #D4D5D5",
"!.	c #D7D6D7",
"~.	c #D6D7D7",
"{.	c #D8D7D7",
"].	c #D7D7D8",
"^.	c #D8D9D9",
"/.	c #D9DADA",
"(.	c #DAD9D9",
"_.	c #D9D9DA",
":.	c #D0D0D0",
"<.	c #D0D0D1",
"[.	c #D1D1D1",
"}.	c #D1D2D2",
"|.	c #D3D3D2",
"1.	c #D4D4D5",
"2.	c #D5D6D6",
"3.	c #D7D7D6",
"4.	c #D7D8D8",
"5.	c #D8D8D7",
"6.	c #CFCFCF",
"7.	c #CFCFD0",
"8.	c #D0D1D0",
"9.	c #D1D0D1",
"0.	c #D2D1D1",
"a.	c #D4D3D3",
"b.	c #D3D4D3",
"c.	c #D4D3D4",
"d.	c #D5D4D4",
"e.	c #D6D5D5",
"f.	c #D5D5D6",
"g.	c #D5D6D5",
"h.	c #CECECE",
"i.	c #CFD0D0",
"j.	c #D2D2D3",
"k.	c #CDCDCD",
"l.	c #CECDCE",
"m.	c #CECECF",
"n.	c #CFCECE",
"o.	c #D0CFD0",
"p.	c #D0D0CF",
"q.	c #D1D0D0",
"r.	c #D2D2D1",
"s.	c #D1D1D2",
"t.	c #CDCCCD",
"u.	c #CCCCCC",
"v.	c #CDCDCE",
"w.	c #CFCECF",
"x.	c #CECFCE",
"y.	c #D0CFCF",
"z.	c #CFD0CF",
"A.	c #CCCDCC",
"B.	c #CCCDCD",
"C.	c #CDCDCC",
"D.	c #CDCECD",
"E.	c #CDCECE",
"F.	c #CECECD",
". . . . . . . . . . . . . . . . . . . . . . . . . . . . . . ",
"+ @ @ @ @ @ @ @ @ @ @ @ @ @ @ @ @ @ @ @ @ @ @ @ @ @ @ @ @ @ ",
"# + @ @ @ @ @ @ @ @ @ @ @ @ @ @ @ @ @ @ @ @ @ @ @ @ @ @ @ @ ",
"$ # + @ @ @ @ @ @ @ @ @ @ @ @ @ @ @ @ @ @ @ @ @ @ @ @ @ @ @ ",
"% $ & * = - - ; @ ; > = + , = - - ; @ ; > = + , = - - ; @ ; ",
"' ) ! ~ { ] ^ ] / ] / # / ( / ] ^ ] / ] / # / ( / ] ^ ] / ] ",
"_ : < [ } | $ 1 1 $ 2 3 2 4 3 2 $ 1 1 $ 2 3 2 4 3 2 $ 1 1 $ ",
"5 6 7 8 9 0 a b c } } } d e ) ! } b c } } } d e ) ! } b c } ",
"f g h 6 i 7 j k l m m < < m n < n l l m m < < m n < n l l m ",
"o p q f r h 6 s t u v v w v w v : v : u v v w v w v : v : u ",
"x x o p p y z g 5 A s s s B s B i s C B s s s B s B i s C B ",
"D E F x G H p I f J K h h h h 5 h h h L L h h h h 5 h h h L ",
"M N O E E F x G H p p I f f f f f f P f f f f f f f f f P f ",
"Q R M N N O E F F x G o o p p p p p p p p p p p p p p p p p ",
"S T Q Q R M M N O E E F x x G G G G G G G G G G G G G G G G ",
"U U V T T W Q X Y M N O Z E `  .F  ...F F F  .F  . .F  ...F ",
"+.@.@.#.U V S T T $.R R M %.N &.O O *.=.O O O Z O Z O O *.=.",
"-.;.>.+.,.'.U ).U U !.~.T {.].^.R /.%.R %./.(.(._./.M /.%.R ",
":.<.[.}.;.;.|.+.@.'.U 1.U 2.S T 3.T Q 4.Q ].4.4.Q Q 5.Q Q 4.",
"6.:.7.:.8.9.[.0.;.;.>.+.+.a.b.c.U d.U 2.e.S f.e.g.V S e.S 2.",
"h.h.6.6.6.i.:.:.:.<.8.[.;.;.[.}.+.;.+.j.b.'.@.@.+.'.@.+.@.,.",
"k.l.k.h.h.h.h.m.n.6.6.o.6.p.6.:.:.<.q.[.:.-.[.r.[.}.[.s.0.;.",
"t.u.k.k.k.k.k.k.l.v.l.k.h.h.6.w.x.h.w.m.w.h.y.i.:.o.z.6.o.7.",
"u.u.u.u.u.u.u.u.k.A.u.A.B.A.A.u.B.C.k.A.u.A.B.D.D.k.E.F.h.D.",
"u.u.u.u.u.u.u.u.u.u.u.u.u.u.u.u.u.u.u.u.u.u.u.u.u.u.u.u.u.u.",
"u.u.u.u.u.u.u.u.u.u.u.u.u.u.u.u.u.u.u.u.u.u.u.u.u.u.u.u.u.u."};
